{"accessors":[{"name":"Mesh1 Model_1_positions","componentType":5126,"count":88,"min":[0,0,-0.5],"max":[0.5,0.25,5.075940062191838e-18],"type":"VEC3","bufferView":0,"byteOffset":0},{"name":"Mesh1 Model_1_normals","componentType":5126,"count":88,"min":[-1,-1,-1],"max":[1,1,1],"type":"VEC3","bufferView":0,"byteOffset":2064},{"name":"Mesh1 Model_1_texcoords","componentType":5126,"count":88,"min":[-19.684999465942383,-18.684999465942383],"max":[19.684999465942383,1],"type":"VEC2","bufferView":1,"byteOffset":0},{"name":"Mesh1 Model_1_0_indices","componentType":5123,"count":126,"min":[0],"max":[87],"type":"SCALAR","bufferView":2,"byteOffset":0},{"name":"Mesh1 Model_1_1_indices","componentType":5123,"count":12,"min":[4],"max":[9],"type":"SCALAR","bufferView":2,"byteOffset":252},{"name":"Mesh1 Model_1_2_indices","componentType":5123,"count":12,"min":[10],"max":[15],"type":"SCALAR","bufferView":2,"byteOffset":276},{"name":"Mesh1 Model_1_3_indices","componentType":5123,"count":12,"min":[49],"max":[54],"type":"SCALAR","bufferView":2,"byteOffset":300},{"name":"Mesh1 Model_1_4_indices","componentType":5123,"count":12,"min":[78],"max":[83],"type":"SCALAR","bufferView":2,"byteOffset":324},{"name":"Mesh2 Model_1_positions","componentType":5126,"count":84,"min":[-5.4143401470956495e-17,0.25,-0.5],"max":[0.5,0.5,0],"type":"VEC3","bufferView":0,"byteOffset":1056},{"name":"Mesh2 Model_1_normals","componentType":5126,"count":84,"min":[-1,-1,-1],"max":[1,1,1],"type":"VEC3","bufferView":0,"byteOffset":3120},{"name":"Mesh2 Model_1_texcoords","componentType":5126,"count":84,"min":[-19.684999465942383,-18.684999465942383],"max":[19.684999465942383,1],"type":"VEC2","bufferView":1,"byteOffset":704},{"name":"Mesh2 Model_1_0_indices","componentType":5123,"count":120,"min":[0],"max":[83],"type":"SCALAR","bufferView":2,"byteOffset":348},{"name":"Mesh2 Model_1_1_indices","componentType":5123,"count":12,"min":[4],"max":[9],"type":"SCALAR","bufferView":2,"byteOffset":588},{"name":"Mesh2 Model_1_2_indices","componentType":5123,"count":12,"min":[10],"max":[15],"type":"SCALAR","bufferView":2,"byteOffset":612},{"name":"Mesh2 Model_1_3_indices","componentType":5123,"count":12,"min":[16],"max":[21],"type":"SCALAR","bufferView":2,"byteOffset":636},{"name":"Mesh2 Model_1_4_indices","componentType":5123,"count":12,"min":[22],"max":[27],"type":"SCALAR","bufferView":2,"byteOffset":660}],"asset":{"generator":"obj2gltf","version":"2.0"},"buffers":[{"name":"caixa","byteLength":6188,"uri":"data:application/octet-stream;base64,"}],"bufferViews":[{"name":"bufferView_0","buffer":0,"byteLength":4128,"byteOffset":0,"byteStride":12,"target":34962},{"name":"bufferView_1","buffer":0,"byteLength":1376,"byteOffset":4128,"byteStride":8,"target":34962},{"name":"bufferView_2","buffer":0,"byteLength":684,"byteOffset":5504,"target":34963}],"materials":[{"name":"FrontColor","pbrMetallicRoughness":{"baseColorFactor":[1,1,1,1],"metallicFactor":0,"roughnessFactor":1},"emissiveFactor":[0,0,0],"alphaMode":"OPAQUE","doubleSided":false},{"name":"Color_E05","pbrMetallicRoughness":{"baseColorFactor":[1,1,0,1],"metallicFactor":0,"roughnessFactor":1},"emissiveFactor":[0,0,0],"alphaMode":"OPAQUE","doubleSided":false},{"name":"Color_A05","pbrMetallicRoughness":{"baseColorFactor":[1,0,0,1],"metallicFactor":0,"roughnessFactor":1},"emissiveFactor":[0,0,0],"alphaMode":"OPAQUE","doubleSided":false},{"name":"Color_I06","pbrMetallicRoughness":{"baseColorFactor":[0,0,0.8,1],"metallicFactor":0,"roughnessFactor":1},"emissiveFactor":[0,0,0],"alphaMode":"OPAQUE","doubleSided":false},{"name":"Color_G07","pbrMetallicRoughness":{"baseColorFactor":[0,0.6,0,1],"metallicFactor":0,"roughnessFactor":1},"emissiveFactor":[0,0,0],"alphaMode":"OPAQUE","doubleSided":false}],"meshes":[{"name":"Mesh1 Model_1","primitives":[{"attributes":{"POSITION":0,"NORMAL":1,"TEXCOORD_0":2},"indices":3,"material":0,"mode":4},{"attributes":{"POSITION":0,"NORMAL":1,"TEXCOORD_0":2},"indices":4,"material":1,"mode":4},{"attributes":{"POSITION":0,"NORMAL":1,"TEXCOORD_0":2},"indices":5,"material":2,"mode":4},{"attributes":{"POSITION":0,"NORMAL":1,"TEXCOORD_0":2},"indices":6,"material":3,"mode":4},{"attributes":{"POSITION":0,"NORMAL":1,"TEXCOORD_0":2},"indices":7,"material":4,"mode":4}]},{"name":"Mesh2 Model_1","primitives":[{"attributes":{"POSITION":8,"NORMAL":9,"TEXCOORD_0":10},"indices":11,"material":0,"mode":4},{"attributes":{"POSITION":8,"NORMAL":9,"TEXCOORD_0":10},"indices":12,"material":4,"mode":4},{"attributes":{"POSITION":8,"NORMAL":9,"TEXCOORD_0":10},"indices":13,"material":2,"mode":4},{"attributes":{"POSITION":8,"NORMAL":9,"TEXCOORD_0":10},"indices":14,"material":1,"mode":4},{"attributes":{"POSITION":8,"NORMAL":9,"TEXCOORD_0":10},"indices":15,"material":3,"mode":4}]}],"nodes":[{"name":"Mesh1 Model","mesh":0},{"name":"Mesh2 Model","mesh":1}],"scene":0,"scenes":[{"nodes":[0,1]}]}
